<svg xmlns="http://www.w3.org/2000/svg" xmlns:xlink="http://www.w3.org/1999/xlink" width="500" zoomAndPan="magnify" viewBox="0 0 375 374.999991" height="500" preserveAspectRatio="xMidYMid meet" version="1.0"><defs><g/><clipPath id="fedb66ba91"><path d="M 80.546875 124.019531 L 280.796875 124.019531 L 280.796875 246.269531 L 80.546875 246.269531 Z M 80.546875 124.019531 " clip-rule="nonzero"/></clipPath><clipPath id="e1db5d155d"><path d="M 139.21875 118 L 201 118 L 201 230.742188 L 139.21875 230.742188 Z M 139.21875 118 " clip-rule="nonzero"/></clipPath><clipPath id="e2c1f2ae8a"><path d="M 139.21875 112 L 186 112 L 186 230.742188 L 139.21875 230.742188 Z M 139.21875 112 " clip-rule="nonzero"/></clipPath><clipPath id="f038f458ce"><path d="M 147 49.992188 L 224 49.992188 L 224 152 L 147 152 Z M 147 49.992188 " clip-rule="nonzero"/></clipPath><clipPath id="390b469612"><path d="M 139.21875 208 L 161 208 L 161 230.742188 L 139.21875 230.742188 Z M 139.21875 208 " clip-rule="nonzero"/></clipPath></defs><g clip-path="url(#fedb66ba91)"><path fill="#fae472" d="M 102.746094 235.476562 C 101.980469 236.242188 101.324219 236.570312 100.339844 235.804688 C 100.121094 235.585938 99.792969 235.585938 99.355469 235.476562 C 99.464844 235.257812 99.683594 234.929688 99.902344 234.492188 C 99.464844 234.382812 98.808594 234.382812 98.589844 234.054688 C 98.371094 233.726562 98.589844 233.179688 98.699219 232.414062 C 98.261719 232.523438 97.714844 232.523438 97.277344 232.632812 L 96.621094 231.320312 C 96.839844 231.320312 97.167969 231.210938 97.496094 231.210938 L 97.496094 230.992188 C 97.167969 230.882812 96.730469 230.773438 96.730469 230.773438 C 96.402344 230.335938 96.292969 230.117188 96.074219 230.007812 C 95.855469 229.898438 95.636719 229.789062 95.527344 229.679688 C 95.199219 229.460938 94.980469 229.242188 94.652344 228.914062 C 95.089844 228.695312 95.417969 228.585938 95.855469 228.367188 C 96.074219 228.257812 96.402344 228.257812 96.621094 228.148438 C 96.402344 227.929688 96.183594 227.820312 95.964844 227.601562 C 95.746094 227.382812 95.527344 227.054688 95.417969 226.726562 C 95.199219 225.960938 95.089844 225.195312 94.871094 224.429688 C 94.652344 223.992188 94.214844 223.554688 93.886719 223.117188 C 93.777344 223.007812 93.449219 222.898438 93.339844 222.789062 C 92.902344 222.023438 92.792969 220.820312 92.246094 220.382812 C 91.152344 219.507812 92.246094 218.304688 91.371094 217.539062 C 91.152344 217.320312 90.824219 216.992188 90.824219 216.664062 C 90.824219 215.902344 89.402344 215.574219 90.277344 214.589844 C 90.386719 214.480469 89.839844 213.386719 89.402344 213.058594 C 87.984375 211.964844 88.3125 210.105469 87.4375 208.792969 C 87.328125 208.574219 87.65625 208.136719 87.65625 207.808594 C 86.234375 206.933594 85.90625 205.621094 86.671875 204.308594 C 86.125 203.871094 85.578125 203.542969 85.140625 203.105469 L 84.8125 202.777344 C 86.890625 202.339844 86.234375 200.589844 86.5625 199.277344 C 86.125 199.058594 85.796875 198.949219 85.25 198.730469 C 85.46875 198.511719 85.6875 198.402344 85.90625 198.183594 C 85.140625 197.417969 82.84375 197.199219 84.921875 195.230469 C 84.265625 195.011719 83.71875 194.792969 82.953125 194.574219 C 83.390625 194.246094 83.71875 194.027344 84.046875 193.808594 C 83.71875 193.589844 83.28125 193.480469 82.84375 193.152344 C 82.40625 192.605469 84.046875 191.296875 82.296875 190.640625 L 82.296875 189 C 82.40625 188.890625 82.734375 188.671875 83.171875 188.453125 C 82.625 188.34375 82.296875 188.234375 82.1875 188.234375 C 81.96875 187.140625 81.75 186.15625 81.53125 185.28125 C 81.3125 185.28125 81.203125 185.171875 80.984375 185.171875 C 81.3125 185.0625 81.53125 184.953125 81.859375 184.84375 C 81.859375 184.734375 81.75 184.625 81.75 184.515625 C 81.3125 184.296875 80.984375 184.1875 80.546875 183.96875 C 80.546875 183.859375 80.546875 183.53125 80.65625 183.3125 C 80.984375 183.3125 81.421875 183.421875 81.75 183.421875 C 85.578125 180.25 87.765625 179.265625 93.339844 177.953125 C 96.402344 177.1875 99.355469 176.203125 102.308594 175.328125 C 103.183594 175 104.167969 174.671875 104.933594 174.125 C 105.371094 173.796875 105.480469 173.03125 105.589844 172.375 C 105.589844 172.046875 105.152344 171.609375 104.714844 171.5 C 103.730469 171.0625 103.839844 170.296875 103.949219 169.640625 C 103.511719 169.203125 103.074219 168.875 102.636719 168.4375 C 102.964844 168 103.183594 167.671875 103.402344 167.34375 C 101.652344 167.671875 102.199219 166.144531 101.980469 165.488281 C 101.433594 164.175781 101.324219 162.863281 100.996094 161.441406 C 101.105469 161.441406 101.324219 161.441406 101.542969 161.550781 C 100.996094 159.910156 100.558594 158.378906 100.011719 156.738281 C 100.121094 156.738281 100.230469 156.628906 100.339844 156.628906 C 100.011719 156.300781 99.574219 156.082031 99.136719 155.644531 C 99.902344 154.769531 100.777344 154.113281 100.886719 152.910156 C 100.996094 151.488281 102.527344 151.050781 103.730469 150.503906 C 107.011719 149.191406 110.402344 147.988281 113.683594 146.566406 C 115.757812 145.691406 117.726562 144.597656 119.804688 143.722656 C 121.773438 142.847656 123.742188 141.972656 125.820312 141.210938 C 127.789062 140.445312 129.867188 139.789062 131.835938 139.242188 C 133.585938 138.804688 135.445312 138.585938 137.195312 138.148438 C 137.960938 138.039062 138.617188 137.601562 139.269531 137.382812 C 142.769531 136.398438 146.269531 135.523438 149.660156 134.539062 C 152.613281 133.773438 155.457031 132.898438 158.410156 132.570312 C 159.613281 132.460938 160.816406 131.148438 162.128906 132.242188 C 162.238281 132.351562 162.675781 131.914062 163.003906 131.914062 C 163.550781 131.804688 163.988281 131.914062 164.53125 131.914062 C 164.203125 130.273438 165.84375 131.148438 166.390625 131.039062 C 168.25 130.492188 170.328125 130.164062 172.296875 130.054688 C 176.671875 129.726562 180.828125 128.304688 185.09375 128.085938 C 187.609375 127.867188 190.121094 127.320312 192.636719 126.992188 C 192.855469 126.992188 193.839844 126.335938 193.402344 127.320312 C 196.683594 125.898438 200.292969 126.226562 203.792969 125.679688 C 203.792969 126.117188 203.792969 126.335938 203.683594 126.664062 C 203.902344 126.554688 204.230469 126.445312 204.230469 126.445312 C 203.902344 125.460938 204.558594 125.460938 205.214844 125.351562 C 206.855469 125.242188 208.605469 125.132812 210.246094 125.023438 C 212.105469 124.914062 213.855469 124.695312 215.710938 124.585938 C 216.039062 124.585938 216.367188 124.695312 216.695312 124.804688 C 217.132812 125.023438 217.351562 125.023438 217.898438 124.695312 C 218.445312 124.257812 219.539062 124.367188 220.304688 124.367188 C 223.695312 124.257812 227.085938 124.148438 230.476562 124.148438 C 232.882812 124.148438 235.179688 124.367188 237.585938 124.476562 C 238.789062 124.585938 239.988281 124.695312 241.191406 124.695312 C 242.175781 124.695312 244.582031 126.664062 244.253906 127.429688 C 243.816406 128.414062 244.910156 129.179688 244.363281 130.054688 C 244.363281 130.054688 244.691406 130.273438 244.910156 130.382812 C 244.363281 131.039062 244.472656 131.367188 245.128906 133.554688 C 245.457031 134.648438 245.457031 135.960938 245.457031 137.164062 C 245.566406 137.601562 245.566406 138.039062 245.675781 138.585938 C 245.894531 139.679688 246.113281 140.773438 246.332031 141.972656 C 245.785156 142.082031 245.238281 142.082031 244.582031 142.191406 C 245.675781 143.066406 246.550781 144.160156 245.347656 145.800781 L 245.894531 145.800781 C 245.238281 147.003906 244.582031 148.316406 244.144531 149.300781 C 245.128906 150.285156 246.003906 151.269531 246.988281 152.144531 C 247.207031 152.363281 247.644531 152.691406 247.753906 152.582031 C 249.285156 151.816406 249.941406 153.238281 250.816406 153.785156 C 251.472656 154.222656 253.003906 154.550781 252.128906 156.082031 C 252.128906 156.082031 252.785156 156.628906 253.113281 156.738281 C 253.769531 156.847656 254.425781 156.738281 255.300781 156.628906 L 255.300781 167.015625 L 255.519531 167.015625 C 255.410156 167.234375 255.300781 167.5625 255.300781 167.671875 C 255.957031 168.984375 255.519531 169.96875 254.097656 170.40625 C 253.988281 170.40625 253.878906 170.625 253.769531 170.734375 C 253.769531 170.84375 253.769531 171.0625 253.878906 171.0625 L 254.425781 171.0625 L 255.738281 170.40625 L 255.957031 170.625 C 255.738281 170.953125 255.519531 171.28125 255.300781 171.71875 C 255.628906 172.046875 255.957031 172.375 256.503906 172.8125 C 256.285156 173.03125 255.957031 173.25 255.847656 173.578125 C 255.738281 173.90625 254.972656 174.234375 255.847656 174.671875 C 256.066406 174.78125 256.066406 175.546875 256.175781 176.09375 C 254.535156 175.328125 254.644531 177.1875 253.660156 177.625 C 253.550781 177.40625 253.332031 177.078125 253.113281 176.640625 C 253.003906 177.078125 252.894531 177.40625 252.894531 177.515625 C 252.566406 177.515625 251.910156 177.40625 251.800781 177.515625 C 251.582031 178.171875 251.253906 178.9375 251.472656 179.484375 C 251.582031 179.921875 252.347656 180.46875 252.894531 180.46875 C 254.425781 180.796875 255.957031 180.90625 257.488281 181.015625 C 258.363281 181.125 259.238281 180.90625 260.113281 180.90625 C 261.316406 181.015625 262.410156 181.234375 263.613281 181.34375 C 264.046875 181.34375 264.59375 181.125 265.03125 181.125 C 266.234375 181.234375 267.546875 181.34375 268.75 181.5625 C 268.96875 181.5625 269.1875 181.890625 269.296875 182 C 270.0625 182.109375 270.828125 182.328125 271.484375 182.21875 C 273.015625 181.890625 273.78125 182.4375 274.765625 183.53125 C 275.09375 183.96875 276.296875 183.859375 276.953125 183.75 C 278.703125 183.53125 278.15625 184.953125 278.59375 185.71875 C 278.8125 186.046875 278.8125 186.484375 278.8125 186.8125 C 279.03125 187.6875 278.921875 188.453125 277.609375 188.890625 C 278.046875 189.328125 278.484375 189.546875 278.8125 189.984375 C 279.03125 190.203125 279.03125 190.53125 279.03125 190.859375 C 279.03125 191.296875 278.8125 191.839844 279.03125 192.058594 C 279.796875 192.714844 279.359375 193.152344 278.921875 193.480469 C 279.140625 194.027344 279.578125 194.464844 279.578125 194.902344 C 279.578125 195.667969 279.03125 196.433594 279.90625 196.980469 L 279.90625 197.089844 C 278.703125 198.621094 280.234375 200.042969 279.90625 201.574219 C 279.90625 201.792969 279.90625 202.230469 280.125 202.449219 C 280.78125 202.996094 280.453125 203.542969 280.234375 204.199219 C 279.796875 205.183594 279.359375 206.167969 279.03125 206.933594 C 278.375 206.824219 277.609375 206.605469 276.84375 206.714844 C 276.078125 206.714844 275.421875 206.933594 274.65625 207.042969 C 274.875 207.699219 275.859375 208.136719 274.765625 209.011719 C 274.4375 209.230469 274.65625 210.214844 274.765625 210.761719 C 274.875 211.527344 275.203125 212.402344 275.09375 213.167969 C 275.09375 213.496094 274.328125 213.824219 273.78125 214.042969 C 272.796875 214.589844 271.15625 214.371094 271.375 216.230469 C 270.609375 216.339844 269.625 216.230469 270.609375 217.429688 C 271.046875 217.976562 270.171875 218.742188 268.96875 218.851562 C 267.65625 218.960938 266.34375 219.289062 265.03125 219.507812 C 263.828125 219.726562 262.628906 219.945312 261.425781 220.054688 C 261.097656 220.054688 260.660156 219.726562 260.222656 219.617188 C 259.894531 219.726562 259.347656 219.945312 258.800781 220.164062 C 258.472656 219.507812 258.253906 219.070312 258.144531 218.523438 C 258.035156 218.523438 257.925781 218.523438 257.925781 218.632812 L 257.925781 220.164062 C 257.050781 218.304688 255.847656 220.164062 254.972656 219.835938 C 255.191406 220.054688 255.300781 220.273438 255.519531 220.601562 C 254.972656 220.820312 254.535156 220.929688 254.097656 221.039062 L 254.097656 222.351562 C 253.332031 223.007812 252.785156 223.445312 252.238281 223.992188 C 252.675781 224.101562 253.113281 224.320312 253.769531 224.539062 C 252.457031 224.867188 251.472656 225.632812 250.160156 225.304688 C 249.832031 225.195312 249.394531 225.632812 249.066406 225.851562 C 248.410156 226.617188 247.753906 227.164062 246.988281 226.398438 C 246.441406 227.382812 246.003906 228.257812 245.566406 229.132812 C 245.566406 228.695312 245.457031 228.367188 245.457031 227.929688 C 245.019531 228.039062 244.582031 228.039062 244.144531 228.148438 C 244.253906 228.804688 244.363281 229.132812 244.472656 229.679688 C 244.910156 229.460938 245.238281 229.242188 245.566406 229.023438 C 246.113281 230.335938 246.441406 230.445312 247.972656 229.679688 C 248.191406 230.117188 248.410156 230.554688 248.628906 231.101562 C 247.425781 231.320312 246.222656 231.539062 244.910156 231.867188 C 245.675781 232.851562 243.925781 234.273438 245.675781 234.601562 C 245.238281 235.039062 244.910156 235.695312 244.363281 236.023438 C 243.597656 236.460938 242.722656 236.570312 241.847656 236.789062 C 240.644531 237.007812 239.332031 237.226562 238.132812 237.335938 C 236.492188 237.445312 234.851562 237.554688 233.320312 237.664062 C 232.117188 237.773438 231.023438 238.101562 229.929688 238.210938 C 229.054688 238.320312 228.070312 238.101562 227.195312 238.210938 C 225.773438 238.429688 224.460938 238.976562 223.039062 239.304688 C 222.710938 239.414062 222.273438 239.414062 221.945312 239.414062 C 221.398438 239.414062 220.851562 238.867188 220.523438 239.742188 C 219.210938 238.867188 218.117188 240.945312 216.804688 239.960938 C 216.695312 239.851562 216.367188 240.179688 216.148438 240.289062 L 215.492188 240.617188 C 212.433594 241.164062 209.371094 241.597656 206.308594 242.035156 C 204.777344 242.253906 203.246094 242.253906 201.714844 242.363281 C 200.730469 242.472656 199.746094 242.800781 198.761719 242.910156 C 198.105469 243.019531 197.449219 242.910156 196.574219 242.800781 C 196.246094 243.675781 195.699219 243.566406 195.152344 242.800781 C 194.058594 243.347656 192.964844 243.894531 191.652344 243.566406 C 191.214844 243.457031 190.558594 243.785156 190.011719 243.785156 C 189.574219 243.785156 189.136719 243.675781 188.703125 243.457031 C 188.265625 243.238281 187.71875 242.582031 187.609375 243.785156 C 187.609375 243.894531 186.515625 244.003906 185.859375 244.113281 C 184.546875 244.332031 183.125 244.441406 181.703125 244.660156 C 181.921875 244.222656 182.03125 243.894531 182.140625 243.566406 L 182.03125 243.457031 L 180.390625 244.769531 C 179.515625 245.535156 178.421875 245.425781 177.328125 245.425781 C 176.34375 245.425781 175.25 245.316406 174.484375 245.644531 C 173.609375 245.972656 173.71875 246.191406 173.171875 245.425781 C 172.734375 246.300781 170.765625 246.738281 170.21875 246.191406 C 170.546875 245.972656 170.875 245.863281 171.203125 245.644531 C 171.09375 245.535156 171.09375 245.425781 170.984375 245.316406 C 170.765625 245.425781 170.65625 245.535156 170.4375 245.644531 C 169.125 246.410156 167.703125 246.191406 166.390625 246.300781 C 165.296875 246.410156 164.203125 245.972656 163.003906 245.753906 L 163.003906 244.769531 C 163.003906 243.347656 162.238281 242.582031 160.925781 242.472656 C 160.488281 242.472656 159.722656 242.582031 159.832031 241.488281 C 159.941406 240.726562 158.847656 240.289062 157.863281 240.507812 C 157.097656 240.726562 156.222656 240.617188 155.457031 240.617188 C 155.347656 240.507812 155.128906 240.398438 154.910156 240.398438 C 154.035156 240.507812 153.269531 240.726562 152.394531 240.726562 C 150.644531 240.945312 149.003906 241.054688 147.253906 241.273438 C 146.816406 241.273438 146.378906 241.164062 145.722656 241.164062 C 146.160156 240.835938 146.488281 240.617188 146.816406 240.398438 C 143.972656 240.945312 143.097656 239.195312 142.550781 237.117188 C 142.660156 237.117188 142.878906 237.007812 143.097656 237.007812 C 140.800781 236.679688 140.582031 234.820312 140.035156 233.070312 C 139.707031 232.960938 139.050781 232.742188 138.617188 232.523438 C 138.835938 232.195312 139.160156 231.757812 139.378906 231.429688 C 138.941406 231.320312 138.398438 231.101562 137.960938 231.101562 C 136.429688 231.320312 135.117188 231.101562 134.132812 229.789062 C 135.554688 230.007812 136.867188 230.226562 138.289062 230.445312 C 138.507812 229.679688 138.617188 229.242188 138.726562 228.695312 C 137.742188 229.351562 137.742188 229.351562 136.976562 228.695312 C 136.648438 228.476562 136.320312 228.257812 136.101562 228.148438 C 135.445312 229.242188 134.351562 228.367188 133.367188 228.804688 C 133.695312 229.242188 133.914062 229.570312 134.132812 229.898438 C 133.585938 229.570312 132.492188 230.335938 132.710938 229.023438 C 131.835938 229.242188 130.960938 229.460938 130.195312 229.789062 C 129.757812 230.007812 129.539062 230.554688 129.210938 230.992188 L 129.210938 230.335938 C 128.992188 230.335938 128.773438 230.335938 128.664062 230.445312 C 127.351562 231.101562 125.929688 231.867188 124.617188 232.523438 C 124.289062 232.085938 124.179688 231.757812 124.070312 231.757812 C 123.304688 232.195312 122.539062 232.851562 121.882812 232.742188 C 121.226562 232.742188 120.460938 231.976562 119.804688 231.648438 C 119.804688 232.195312 119.695312 232.742188 119.695312 233.289062 C 118.382812 232.195312 118.164062 232.304688 117.398438 234.273438 C 118.164062 234.273438 118.929688 234.164062 119.804688 234.164062 L 119.804688 233.398438 C 120.132812 233.726562 120.460938 233.945312 120.789062 234.273438 C 120.789062 234.492188 120.679688 235.039062 120.679688 235.039062 C 119.585938 235.039062 118.710938 236.460938 117.398438 235.585938 C 117.179688 235.476562 116.742188 235.804688 116.414062 235.804688 L 115.757812 235.804688 C 112.808594 237.117188 109.636719 237.226562 106.464844 237.992188 C 106.355469 236.789062 105.699219 236.898438 104.824219 237.117188 C 104.605469 237.226562 104.167969 236.898438 103.839844 236.898438 C 104.058594 236.898438 104.277344 236.789062 104.386719 236.789062 C 104.605469 236.351562 104.824219 235.804688 104.933594 235.476562 C 104.605469 235.367188 104.167969 235.039062 103.730469 235.039062 C 103.402344 235.039062 103.074219 235.367188 102.746094 235.476562 C 102.964844 235.148438 102.855469 235.367188 102.746094 235.476562 Z M 217.132812 237.664062 C 215.710938 237.882812 214.507812 238.101562 213.199219 238.320312 L 213.199219 238.867188 C 213.855469 238.976562 214.617188 239.195312 215.273438 239.085938 C 215.929688 239.085938 216.914062 239.085938 217.132812 237.664062 Z M 117.070312 234.382812 C 116.523438 233.726562 116.304688 233.070312 115.539062 233.726562 C 115.210938 234.054688 114.664062 234.054688 114.226562 234.273438 C 114.007812 234.382812 113.792969 234.492188 113.574219 234.710938 L 113.683594 235.039062 C 113.902344 235.039062 114.117188 234.929688 114.445312 234.820312 C 114.773438 234.710938 115.101562 234.710938 115.429688 234.710938 C 115.757812 234.601562 116.304688 234.492188 117.070312 234.382812 Z M 154.253906 237.773438 C 154.800781 238.429688 155.238281 238.976562 155.675781 239.523438 C 155.894531 238.976562 156.222656 238.429688 156.332031 237.992188 C 155.675781 237.773438 155.019531 237.773438 154.253906 237.773438 Z M 120.351562 228.257812 C 119.695312 230.007812 120.132812 230.664062 121.335938 230.554688 C 121.007812 229.898438 120.679688 229.242188 120.351562 228.257812 Z M 120.351562 228.257812 " fill-opacity="1" fill-rule="nonzero"/></g><path fill="#fae472" d="M 121.007812 233.835938 C 120.898438 233.617188 120.898438 233.398438 120.789062 232.960938 C 121.992188 233.835938 122.867188 232.960938 123.851562 232.742188 C 124.835938 232.523438 125.929688 232.960938 126.914062 233.070312 L 126.914062 232.960938 C 126.695312 234.054688 125.820312 233.726562 125.054688 233.835938 C 124.398438 233.945312 123.523438 233.726562 123.085938 234.054688 C 122.101562 234.929688 121.554688 234.492188 121.007812 233.835938 Z M 121.007812 233.835938 " fill-opacity="1" fill-rule="nonzero"/><path fill="#fae472" d="M 126.914062 233.070312 C 127.242188 232.851562 127.570312 232.414062 128.007812 232.085938 C 128.445312 231.757812 128.882812 231.539062 129.320312 231.210938 C 129.429688 231.320312 129.539062 231.539062 129.757812 231.648438 L 131.070312 231.976562 C 129.539062 232.304688 128.226562 232.632812 126.914062 233.070312 Z M 126.914062 233.070312 " fill-opacity="1" fill-rule="nonzero"/><path fill="#fae472" d="M 102.746094 235.476562 C 102.855469 235.367188 102.964844 235.148438 103.074219 235.039062 C 104.386719 234.492188 104.058594 235.914062 104.714844 236.351562 C 104.496094 236.351562 104.277344 236.460938 104.167969 236.460938 C 103.839844 236.570312 103.292969 236.789062 103.074219 236.679688 C 102.855469 236.351562 102.855469 235.914062 102.746094 235.476562 Z M 102.746094 235.476562 " fill-opacity="1" fill-rule="nonzero"/><path fill="#fae472" d="M 130.960938 231.976562 C 130.742188 230.882812 131.835938 230.992188 132.273438 230.773438 C 132.601562 230.664062 133.148438 230.882812 133.804688 230.992188 C 132.820312 232.085938 131.945312 232.414062 130.960938 231.976562 Z M 130.960938 231.976562 " fill-opacity="1" fill-rule="nonzero"/><g clip-path="url(#e1db5d155d)"><path stroke-linecap="butt" transform="matrix(0.433384, 0, 0, 0.432869, 139.347915, 53.27338)" fill="none" stroke-linejoin="miter" d="M 21.676568 387.395744 C 26.201281 390.635396 38.765924 383.686839 71.51151 294.519702 C 104.635658 195.290693 96.352368 196.400657 96.70389 193.296366 " stroke="#000000" stroke-width="7.581" stroke-opacity="1" stroke-miterlimit="4"/></g><g clip-path="url(#e2c1f2ae8a)"><path stroke-linecap="butt" transform="matrix(0.433384, 0, 0, 0.432869, 139.347915, 53.27338)" fill="none" stroke-linejoin="miter" d="M 9.337259 385.211912 C 3.766994 385.049478 -3.578905 376.485607 20.865364 279.693105 C 41.596123 212.445508 54.935916 183.983495 63.507635 179.038288 " stroke="#000000" stroke-width="7.581" stroke-opacity="1" stroke-miterlimit="4"/></g><path stroke-linecap="butt" transform="matrix(0.433384, 0, 0, 0.432869, 139.347915, 53.27338)" fill="none" stroke-linejoin="miter" d="M 61.101064 188.170677 C 50.438243 185.481495 55.215331 168.362777 65.607751 168.931295 " stroke="#000000" stroke-width="7.581" stroke-opacity="1" stroke-miterlimit="4"/><path stroke-linecap="butt" transform="matrix(0.433384, 0, 0, 0.432869, 139.347915, 53.27338)" fill-opacity="1" fill="#8c9fbd" fill-rule="evenodd" stroke-linejoin="miter" d="M 62.696431 183.18035 C 40.280171 218.266052 6.218632 327.358403 7.723865 380.266705 C 7.119969 382.558826 23.902871 387.476961 24.813222 385.78043 C 55.251384 342.807663 90.610849 235.574277 95.667352 193.603186 C 79.389199 182.918651 62.696431 183.171326 62.696431 183.171326 Z M 62.696431 183.18035 " stroke="#000000" stroke-width="0.758" stroke-opacity="1" stroke-miterlimit="4"/><path stroke-linecap="butt" transform="matrix(0.433384, 0, 0, 0.432869, 139.347915, 53.27338)" fill="none" stroke-linejoin="miter" d="M 95.721432 198.467176 C 102.724823 199.559092 110.431258 190.345485 101.760392 179.832408 " stroke="#000000" stroke-width="7.581" stroke-opacity="1" stroke-miterlimit="4"/><g clip-path="url(#f038f458ce)"><path stroke-linecap="butt" transform="matrix(0.433384, 0, 0, 0.432869, 139.347915, 53.27338)" fill="none" stroke-linejoin="miter" d="M 60.641382 170.618802 C 61.06501 139.909788 81.056673 89.293608 83.769698 81.226062 C 86.482724 73.158516 118.047558 -2.102482 138.733251 4.160244 C 159.427957 10.42297 154.497641 53.35964 134.677233 113.7038 C 114.865837 174.04796 103.499973 184.118856 103.499973 184.118856 " stroke="#000000" stroke-width="7.581" stroke-opacity="1" stroke-miterlimit="4"/></g><path stroke-linecap="butt" transform="matrix(0.433384, 0, 0, 0.432869, 139.347915, 53.27338)" fill-opacity="1" fill="#8c9fbd" fill-rule="evenodd" stroke-linejoin="miter" d="M 138.327649 8.031583 C 111.657076 0.279881 65.112015 124.261997 64.255745 170.492464 C 62.633337 176.9086 73.025757 176.186672 83.679565 178.939022 C 94.630814 181.781614 100.372333 188.39628 101.850526 182.503542 C 128.809526 137.635714 166.512468 17.100804 138.327649 8.031583 Z M 138.327649 8.031583 " stroke="#000000" stroke-width="0.758" stroke-opacity="1" stroke-miterlimit="4"/><path stroke-linecap="butt" transform="matrix(0.433384, 0, 0, 0.432869, 139.347915, 53.27338)" fill-opacity="1" fill="#fae472" fill-rule="evenodd" stroke-linejoin="miter" d="M 59.343456 177.838082 C 56.323976 187.899954 67.599706 184.542989 78.866423 187.719472 C 90.142154 190.895956 99.011313 198.449128 101.426897 191.25692 C 103.833468 184.073736 92.422537 175.419623 83.246923 173.569683 C 74.071308 171.719742 61.804107 169.436645 59.343456 177.838082 Z M 59.343456 177.838082 " stroke="#000000" stroke-width="3.79" stroke-opacity="1" stroke-miterlimit="4"/><path fill="#ffffff" d="M 146.578125 211.6875 C 152.648438 175.25 161.320312 152.449219 164.75 144.027344 C 167.886719 135.230469 160.179688 167.34375 158.601562 172.03125 Z M 146.578125 211.6875 " fill-opacity="0.542" fill-rule="evenodd"/><path fill="#ffffff" d="M 171.347656 125.78125 C 175.8125 99.089844 184.660156 78.660156 187.203125 75.289062 C 189.75 71.917969 185.90625 87.539062 185.90625 87.539062 L 171.347656 125.785156 Z M 171.347656 125.78125 " fill-opacity="0.542" fill-rule="evenodd"/><path fill="#000000" d="M 269.339844 167.320312 C 268.21875 167.226562 267.070312 167.269531 265.945312 167.257812 C 257.238281 167.101562 248.554688 167.109375 239.847656 167.316406 C 222.859375 167.796875 205.523438 168.1875 188.796875 171.460938 C 188.226562 171.59375 184.6875 172.023438 184.378906 172.824219 C 184.199219 173.28125 185.425781 172.367188 185.523438 171.882812 C 185.628906 171.347656 184.425781 170.304688 184.972656 170.335938 C 190.425781 170.640625 196.296875 172.394531 201.738281 173.144531 C 227.902344 176.617188 254.511719 178.199219 280.476562 182.949219 C 310.929688 189.964844 266.363281 196.214844 260.359375 196.746094 C 241.128906 198.195312 220.894531 197.207031 201.921875 200.941406 C 201.617188 201.035156 201.949219 198.496094 204.460938 199.730469 C 209.414062 202.160156 214.550781 204.242188 219.597656 206.46875 C 223.652344 208.285156 239.65625 213.269531 237.746094 219.789062 C 233.5625 225.042969 222.773438 224.457031 216.738281 224.773438 C 209.078125 225.105469 201.414062 225.128906 193.746094 225.167969 C 190.511719 225.195312 187.261719 225.199219 184.039062 225.566406 C 181.425781 225.886719 178.832031 226.140625 176.199219 226.292969 C 173.398438 226.453125 170.597656 226.679688 167.808594 226.96875 C 165.367188 227.253906 162.9375 227.617188 160.480469 227.789062 C 158.535156 227.90625 156.589844 228.070312 154.640625 228.144531 C 152.867188 228.203125 151.09375 228.1875 149.320312 228.164062 C 147.832031 228.140625 146.347656 228.09375 144.863281 228.257812 L 143.746094 223.6875 C 145.65625 223.503906 147.558594 223.515625 149.476562 223.539062 C 151.058594 223.5625 152.640625 223.574219 154.226562 223.53125 C 156.0625 223.464844 157.890625 223.3125 159.726562 223.21875 C 162.0625 223.070312 164.375 222.707031 166.699219 222.449219 C 169.636719 222.167969 172.582031 221.933594 175.53125 221.753906 C 177.980469 221.605469 180.394531 221.332031 182.828125 221.046875 C 186.46875 220.667969 190.132812 220.710938 193.785156 220.742188 C 201.242188 220.832031 208.699219 220.90625 216.152344 220.546875 C 220.113281 220.308594 224.140625 220.066406 228.03125 219.238281 C 228.320312 219.175781 230.84375 218.339844 230.894531 218.582031 C 231.605469 219.910156 228.816406 216.347656 227.535156 215.550781 C 223.886719 213.277344 219.933594 211.507812 216.027344 209.730469 C 213.886719 208.785156 184.960938 199.261719 200.382812 196.734375 C 219.992188 194.574219 239.886719 195.097656 259.554688 193.363281 C 263.152344 192.984375 294.9375 191.277344 278.664062 186.539062 C 253.265625 180.734375 226.574219 179.300781 200.710938 176.613281 C 195.84375 176.113281 161.960938 171.984375 187.089844 167.488281 C 204.398438 164.816406 222.058594 164.28125 239.535156 163.519531 C 248.335938 163.144531 257.136719 162.828125 265.945312 162.671875 C 267.070312 162.660156 268.21875 162.699219 269.339844 162.605469 Z M 269.339844 167.320312 " fill-opacity="0.75" fill-rule="nonzero"/><path fill="#929292" d="M 143.105469 219.363281 C 141.421875 229.195312 143.988281 230.523438 149.257812 221.242188 C 146.882812 221.050781 144.003906 219.882812 143.105469 219.363281 Z M 143.105469 219.363281 " fill-opacity="1" fill-rule="evenodd"/><g clip-path="url(#390b469612)"><path stroke-linecap="butt" transform="matrix(0.433384, 0, 0, 0.432869, 139.347915, 53.27338)" fill="none" stroke-linejoin="miter" d="M 8.670269 383.695863 C 4.785505 406.409524 10.707292 409.477718 22.866333 388.036455 C 17.386202 387.594274 10.743345 384.896068 8.670269 383.695863 Z M 8.670269 383.695863 " stroke="#000000" stroke-width="4.624" stroke-opacity="1" stroke-miterlimit="4"/></g><g fill="#121416" fill-opacity="1"><g transform="translate(110.989056, 300.993451)"><g><path d="M 41.140625 -50.234375 C 41.453125 -50.234375 41.75 -50.140625 42.03125 -49.953125 C 42.320312 -49.773438 42.625 -49.601562 42.9375 -49.4375 C 37.875 -49.070312 32.847656 -48.640625 27.859375 -48.140625 C 22.867188 -47.648438 17.835938 -47.171875 12.765625 -46.703125 C 12.609375 -46.390625 12.453125 -46.078125 12.296875 -45.765625 C 12.140625 -45.453125 12.007812 -45.140625 11.90625 -44.828125 C 9.5625 -35.421875 7.117188 -26.054688 4.578125 -16.734375 C 2.046875 -7.410156 -0.207031 1.953125 -2.1875 11.359375 C -2.394531 12.453125 -2.601562 13.519531 -2.8125 14.5625 C -3.03125 15.613281 -3.242188 16.660156 -3.453125 17.703125 C -3.554688 18.234375 -3.671875 18.742188 -3.796875 19.234375 C -3.929688 19.734375 -4.078125 20.21875 -4.234375 20.6875 C -4.703125 20.738281 -5.039062 20.644531 -5.25 20.40625 C -5.457031 20.175781 -5.5625 19.929688 -5.5625 19.671875 C -5.613281 19.046875 -5.640625 18.441406 -5.640625 17.859375 C -5.640625 17.285156 -5.613281 16.6875 -5.5625 16.0625 C -5.144531 11.882812 -4.539062 7.703125 -3.75 3.515625 C -2.96875 -0.660156 -2.160156 -4.8125 -1.328125 -8.9375 C -0.179688 -14.625 1.066406 -20.273438 2.421875 -25.890625 C 3.785156 -31.515625 5.195312 -37.117188 6.65625 -42.703125 C 6.757812 -43.171875 6.863281 -43.65625 6.96875 -44.15625 C 7.070312 -44.65625 7.175781 -45.191406 7.28125 -45.765625 C 6.914062 -45.816406 6.5625 -45.867188 6.21875 -45.921875 C 5.882812 -45.972656 5.5625 -45.972656 5.25 -45.921875 C 2.738281 -45.660156 0.242188 -45.375 -2.234375 -45.0625 C -4.710938 -44.75 -7.179688 -44.429688 -9.640625 -44.109375 C -10.210938 -44.003906 -10.613281 -43.988281 -10.84375 -44.0625 C -11.082031 -44.144531 -11.671875 -44.453125 -12.609375 -44.984375 C -12.191406 -45.660156 -11.628906 -46.078125 -10.921875 -46.234375 C -10.222656 -46.390625 -9.535156 -46.546875 -8.859375 -46.703125 C -7.128906 -47.015625 -5.375 -47.285156 -3.59375 -47.515625 C -1.820312 -47.753906 -0.0507812 -48.003906 1.71875 -48.265625 C 2.769531 -48.421875 3.84375 -48.5625 4.9375 -48.6875 C 6.03125 -48.820312 7.128906 -48.96875 8.234375 -49.125 C 8.492188 -49.96875 8.753906 -50.816406 9.015625 -51.671875 C 9.273438 -52.535156 9.5625 -53.382812 9.875 -54.21875 C 10.238281 -55.164062 10.601562 -56.117188 10.96875 -57.078125 C 11.332031 -58.046875 11.75 -58.945312 12.21875 -59.78125 C 12.632812 -60.570312 13.179688 -61.097656 13.859375 -61.359375 C 14.546875 -61.617188 15.359375 -61.539062 16.296875 -61.125 C 16.296875 -60.125 16.097656 -59.191406 15.703125 -58.328125 C 15.316406 -57.472656 14.992188 -56.601562 14.734375 -55.71875 C 14.523438 -54.769531 14.300781 -53.828125 14.0625 -52.890625 C 13.832031 -51.953125 13.5625 -50.960938 13.25 -49.921875 C 13.769531 -49.867188 14.222656 -49.800781 14.609375 -49.71875 C 15.003906 -49.632812 15.382812 -49.625 15.75 -49.6875 C 18.675781 -49.789062 21.601562 -49.929688 24.53125 -50.109375 C 27.457031 -50.296875 30.378906 -50.441406 33.296875 -50.546875 C 34.609375 -50.597656 35.914062 -50.582031 37.21875 -50.5 C 38.519531 -50.425781 39.828125 -50.335938 41.140625 -50.234375 Z M 41.140625 -50.234375 "/></g></g></g><g fill="#121416" fill-opacity="1"><g transform="translate(123.917371, 300.993451)"><g><path d="M 18.65625 -8.078125 C 19.125 -8.234375 19.445312 -8.296875 19.625 -8.265625 C 19.8125 -8.242188 20.191406 -8.070312 20.765625 -7.75 C 20.140625 -7.070312 19.5625 -6.578125 19.03125 -6.265625 C 18.507812 -5.953125 17.804688 -5.742188 16.921875 -5.640625 C 16.035156 -5.535156 14.726562 -5.457031 13 -5.40625 C 12.269531 -4.726562 11.578125 -4.070312 10.921875 -3.4375 C 10.273438 -2.8125 9.640625 -2.1875 9.015625 -1.5625 C 8.222656 -0.78125 7.410156 -0.101562 6.578125 0.46875 C 5.742188 1.039062 4.859375 1.40625 3.921875 1.5625 C 3.296875 1.664062 2.664062 1.703125 2.03125 1.671875 C 1.40625 1.648438 0.804688 1.5625 0.234375 1.40625 C -1.753906 0.78125 -2.507812 -0.992188 -2.03125 -3.921875 C -1.875 -4.960938 -1.613281 -5.941406 -1.25 -6.859375 C -0.882812 -7.773438 -0.46875 -8.648438 0 -9.484375 C 0.363281 -10.160156 0.753906 -10.835938 1.171875 -11.515625 C 1.585938 -12.191406 2.03125 -12.898438 2.5 -13.640625 C 2.445312 -15.148438 2.707031 -16.476562 3.28125 -17.625 C 3.863281 -18.78125 4.597656 -19.851562 5.484375 -20.84375 C 6.367188 -21.78125 7.28125 -22.585938 8.21875 -23.265625 C 9.164062 -23.953125 10.1875 -24.425781 11.28125 -24.6875 C 12.113281 -24.84375 12.820312 -24.894531 13.40625 -24.84375 C 16.007812 -24.476562 17.257812 -22.519531 17.15625 -18.96875 C 17.101562 -17.550781 16.90625 -16.1875 16.5625 -14.875 C 16.226562 -13.570312 15.800781 -12.296875 15.28125 -11.046875 C 15.125 -10.523438 14.941406 -9.988281 14.734375 -9.4375 C 14.523438 -8.894531 14.289062 -8.332031 14.03125 -7.75 C 14.863281 -7.4375 15.65625 -7.34375 16.40625 -7.46875 C 17.164062 -7.601562 17.914062 -7.804688 18.65625 -8.078125 Z M 2.5 -0.234375 C 3.1875 -0.335938 3.972656 -0.703125 4.859375 -1.328125 C 5.742188 -1.953125 6.59375 -2.722656 7.40625 -3.640625 C 8.21875 -4.554688 8.859375 -5.484375 9.328125 -6.421875 C 8.859375 -6.734375 8.382812 -7.03125 7.90625 -7.3125 C 7.4375 -7.601562 6.992188 -7.9375 6.578125 -8.3125 C 6.109375 -8.625 5.664062 -8.988281 5.25 -9.40625 C 4.832031 -9.820312 4.363281 -10.238281 3.84375 -10.65625 C 3.164062 -9.769531 2.640625 -8.828125 2.265625 -7.828125 C 1.898438 -6.835938 1.5625 -5.820312 1.25 -4.78125 C 1.144531 -4.3125 1.078125 -3.800781 1.046875 -3.25 C 1.023438 -2.695312 1.015625 -2.160156 1.015625 -1.640625 C 1.066406 -0.546875 1.5625 -0.078125 2.5 -0.234375 Z M 11.046875 -8.78125 C 12.035156 -10.445312 12.804688 -12.179688 13.359375 -13.984375 C 13.910156 -15.785156 14.160156 -17.707031 14.109375 -19.75 C 14.109375 -20.320312 14.039062 -20.878906 13.90625 -21.421875 C 13.78125 -21.972656 13.453125 -22.40625 12.921875 -22.71875 C 11.828125 -22.25 10.863281 -21.546875 10.03125 -20.609375 C 9.195312 -19.671875 8.4375 -18.546875 7.75 -17.234375 C 7.488281 -16.660156 7.332031 -16.070312 7.28125 -15.46875 C 7.226562 -14.875 7.28125 -14.238281 7.4375 -13.5625 C 7.757812 -12.351562 8.21875 -11.367188 8.8125 -10.609375 C 9.414062 -9.859375 10.160156 -9.25 11.046875 -8.78125 Z M 11.046875 -8.78125 "/></g></g></g><g fill="#121416" fill-opacity="1"><g transform="translate(142.565505, 300.993451)"><g><path d="M 46.234375 -79.375 C 46.390625 -78.332031 46.3125 -77.390625 46 -76.546875 C 45.6875 -75.710938 45.398438 -74.878906 45.140625 -74.046875 C 42.835938 -67.203125 40.507812 -60.4375 38.15625 -53.75 C 34.238281 -42.625 30.4375 -31.484375 26.75 -20.328125 C 23.070312 -9.179688 19.640625 2.0625 16.453125 13.40625 C 16.191406 14.34375 15.851562 15.203125 15.4375 15.984375 C 15.332031 16.191406 15.175781 16.347656 14.96875 16.453125 C 14.757812 16.554688 14.523438 16.6875 14.265625 16.84375 C 13.796875 16.21875 13.570312 15.601562 13.59375 15 C 13.625 14.40625 13.691406 13.820312 13.796875 13.25 C 14.160156 11.414062 14.523438 9.554688 14.890625 7.671875 C 15.253906 5.796875 15.695312 3.914062 16.21875 2.03125 C 17.101562 -1.363281 18.03125 -4.742188 19 -8.109375 C 19.96875 -11.484375 20.894531 -14.863281 21.78125 -18.25 C 21.9375 -18.882812 22.128906 -19.515625 22.359375 -20.140625 C 22.597656 -20.765625 22.640625 -21.414062 22.484375 -22.09375 C 21.753906 -21.882812 21.242188 -21.519531 20.953125 -21 C 20.671875 -20.476562 20.347656 -19.984375 19.984375 -19.515625 C 18.253906 -17.109375 16.359375 -14.882812 14.296875 -12.84375 C 12.234375 -10.8125 10.023438 -8.90625 7.671875 -7.125 C 6.835938 -6.5 5.976562 -5.9375 5.09375 -5.4375 C 4.207031 -4.945312 3.265625 -4.625 2.265625 -4.46875 C 1.953125 -4.363281 1.648438 -4.285156 1.359375 -4.234375 C 1.078125 -4.179688 0.78125 -4.15625 0.46875 -4.15625 C -1.25 -4.257812 -2.472656 -4.710938 -3.203125 -5.515625 C -3.941406 -6.328125 -4.101562 -7.648438 -3.6875 -9.484375 C -3.6875 -9.585938 -3.671875 -9.703125 -3.640625 -9.828125 C -3.617188 -9.960938 -3.582031 -10.082031 -3.53125 -10.1875 C -2.21875 -13.0625 -0.632812 -15.710938 1.21875 -18.140625 C 3.070312 -20.566406 5.359375 -22.644531 8.078125 -24.375 C 9.847656 -25.519531 11.675781 -25.804688 13.5625 -25.234375 C 14.601562 -24.921875 14.863281 -24.210938 14.34375 -23.109375 C 13.925781 -23.210938 13.492188 -23.332031 13.046875 -23.46875 C 12.597656 -23.601562 12.113281 -23.75 11.59375 -23.90625 C 11.226562 -23.695312 10.847656 -23.472656 10.453125 -23.234375 C 10.066406 -22.992188 9.71875 -22.71875 9.40625 -22.40625 C 7.570312 -20.6875 5.960938 -18.832031 4.578125 -16.84375 C 3.191406 -14.863281 1.976562 -12.75 0.9375 -10.5 C 0.625 -9.820312 0.398438 -9.140625 0.265625 -8.453125 C 0.140625 -7.773438 0.257812 -7.019531 0.625 -6.1875 C 0.882812 -6.1875 1.15625 -6.195312 1.4375 -6.21875 C 1.726562 -6.25 2.003906 -6.316406 2.265625 -6.421875 C 3.421875 -7.046875 4.519531 -7.753906 5.5625 -8.546875 C 8.957031 -10.941406 11.960938 -13.664062 14.578125 -16.71875 C 17.191406 -19.78125 19.515625 -23.085938 21.546875 -26.640625 C 23.429688 -29.828125 25.128906 -33.101562 26.640625 -36.46875 C 28.160156 -39.84375 29.492188 -43.304688 30.640625 -46.859375 C 32.097656 -51.453125 33.609375 -56.035156 35.171875 -60.609375 C 36.742188 -65.179688 38.316406 -69.738281 39.890625 -74.28125 C 40.046875 -74.800781 40.210938 -75.320312 40.390625 -75.84375 C 40.578125 -76.375 40.75 -76.875 40.90625 -77.34375 C 41.476562 -78.695312 42.0625 -79.488281 42.65625 -79.71875 C 43.257812 -79.957031 44.453125 -79.84375 46.234375 -79.375 Z M 46.234375 -79.375 "/></g></g></g><g fill="#121416" fill-opacity="1"><g transform="translate(171.94806, 300.993451)"><g><path d="M 18.65625 -8.078125 C 19.125 -8.234375 19.445312 -8.296875 19.625 -8.265625 C 19.8125 -8.242188 20.191406 -8.070312 20.765625 -7.75 C 20.140625 -7.070312 19.5625 -6.578125 19.03125 -6.265625 C 18.507812 -5.953125 17.804688 -5.742188 16.921875 -5.640625 C 16.035156 -5.535156 14.726562 -5.457031 13 -5.40625 C 12.269531 -4.726562 11.578125 -4.070312 10.921875 -3.4375 C 10.273438 -2.8125 9.640625 -2.1875 9.015625 -1.5625 C 8.222656 -0.78125 7.410156 -0.101562 6.578125 0.46875 C 5.742188 1.039062 4.859375 1.40625 3.921875 1.5625 C 3.296875 1.664062 2.664062 1.703125 2.03125 1.671875 C 1.40625 1.648438 0.804688 1.5625 0.234375 1.40625 C -1.753906 0.78125 -2.507812 -0.992188 -2.03125 -3.921875 C -1.875 -4.960938 -1.613281 -5.941406 -1.25 -6.859375 C -0.882812 -7.773438 -0.46875 -8.648438 0 -9.484375 C 0.363281 -10.160156 0.753906 -10.835938 1.171875 -11.515625 C 1.585938 -12.191406 2.03125 -12.898438 2.5 -13.640625 C 2.445312 -15.148438 2.707031 -16.476562 3.28125 -17.625 C 3.863281 -18.78125 4.597656 -19.851562 5.484375 -20.84375 C 6.367188 -21.78125 7.28125 -22.585938 8.21875 -23.265625 C 9.164062 -23.953125 10.1875 -24.425781 11.28125 -24.6875 C 12.113281 -24.84375 12.820312 -24.894531 13.40625 -24.84375 C 16.007812 -24.476562 17.257812 -22.519531 17.15625 -18.96875 C 17.101562 -17.550781 16.90625 -16.1875 16.5625 -14.875 C 16.226562 -13.570312 15.800781 -12.296875 15.28125 -11.046875 C 15.125 -10.523438 14.941406 -9.988281 14.734375 -9.4375 C 14.523438 -8.894531 14.289062 -8.332031 14.03125 -7.75 C 14.863281 -7.4375 15.65625 -7.34375 16.40625 -7.46875 C 17.164062 -7.601562 17.914062 -7.804688 18.65625 -8.078125 Z M 2.5 -0.234375 C 3.1875 -0.335938 3.972656 -0.703125 4.859375 -1.328125 C 5.742188 -1.953125 6.59375 -2.722656 7.40625 -3.640625 C 8.21875 -4.554688 8.859375 -5.484375 9.328125 -6.421875 C 8.859375 -6.734375 8.382812 -7.03125 7.90625 -7.3125 C 7.4375 -7.601562 6.992188 -7.9375 6.578125 -8.3125 C 6.109375 -8.625 5.664062 -8.988281 5.25 -9.40625 C 4.832031 -9.820312 4.363281 -10.238281 3.84375 -10.65625 C 3.164062 -9.769531 2.640625 -8.828125 2.265625 -7.828125 C 1.898438 -6.835938 1.5625 -5.820312 1.25 -4.78125 C 1.144531 -4.3125 1.078125 -3.800781 1.046875 -3.25 C 1.023438 -2.695312 1.015625 -2.160156 1.015625 -1.640625 C 1.066406 -0.546875 1.5625 -0.078125 2.5 -0.234375 Z M 11.046875 -8.78125 C 12.035156 -10.445312 12.804688 -12.179688 13.359375 -13.984375 C 13.910156 -15.785156 14.160156 -17.707031 14.109375 -19.75 C 14.109375 -20.320312 14.039062 -20.878906 13.90625 -21.421875 C 13.78125 -21.972656 13.453125 -22.40625 12.921875 -22.71875 C 11.828125 -22.25 10.863281 -21.546875 10.03125 -20.609375 C 9.195312 -19.671875 8.4375 -18.546875 7.75 -17.234375 C 7.488281 -16.660156 7.332031 -16.070312 7.28125 -15.46875 C 7.226562 -14.875 7.28125 -14.238281 7.4375 -13.5625 C 7.757812 -12.351562 8.21875 -11.367188 8.8125 -10.609375 C 9.414062 -9.859375 10.160156 -9.25 11.046875 -8.78125 Z M 11.046875 -8.78125 "/></g></g></g><g fill="#929292" fill-opacity="1"><g transform="translate(218.764913, 315.903289)"><g><path d="M 1.953125 0 L 1.953125 -15.40625 L 2.625 -15.40625 L 2.625 -0.59375 L 10.109375 -0.59375 L 10 0 Z M 1.953125 0 "/></g></g></g><g fill="#929292" fill-opacity="1"><g transform="translate(236.931823, 315.903289)"><g><path d="M 2.46875 -10.65625 L 2.46875 0 L 1.828125 0 L 1.828125 -10.65625 Z M 2.140625 -13.765625 C 1.972656 -13.765625 1.835938 -13.820312 1.734375 -13.9375 C 1.628906 -14.050781 1.578125 -14.179688 1.578125 -14.328125 C 1.578125 -14.472656 1.632812 -14.601562 1.75 -14.71875 C 1.875 -14.832031 2.003906 -14.890625 2.140625 -14.890625 C 2.316406 -14.890625 2.457031 -14.832031 2.5625 -14.71875 C 2.664062 -14.601562 2.71875 -14.472656 2.71875 -14.328125 C 2.71875 -14.179688 2.664062 -14.050781 2.5625 -13.9375 C 2.457031 -13.820312 2.316406 -13.765625 2.140625 -13.765625 Z M 2.140625 -13.765625 "/></g></g></g><g fill="#929292" fill-opacity="1"><g transform="translate(249.455905, 315.903289)"><g><path d="M 4.96875 0.15625 C 2.46875 0.15625 1.128906 -0.898438 0.953125 -3.015625 L 1.609375 -3.140625 C 1.722656 -2.203125 2.046875 -1.515625 2.578125 -1.078125 C 3.117188 -0.648438 3.914062 -0.4375 4.96875 -0.4375 C 5.894531 -0.4375 6.609375 -0.648438 7.109375 -1.078125 C 7.609375 -1.515625 7.859375 -2.0625 7.859375 -2.71875 C 7.859375 -3.351562 7.625 -3.800781 7.15625 -4.0625 C 6.6875 -4.332031 5.972656 -4.570312 5.015625 -4.78125 C 3.898438 -5.019531 3.050781 -5.347656 2.46875 -5.765625 C 1.894531 -6.191406 1.609375 -6.878906 1.609375 -7.828125 C 1.609375 -8.398438 1.75 -8.910156 2.03125 -9.359375 C 2.3125 -9.804688 2.710938 -10.160156 3.234375 -10.421875 C 3.753906 -10.691406 4.351562 -10.828125 5.03125 -10.828125 C 5.914062 -10.828125 6.644531 -10.601562 7.21875 -10.15625 C 7.789062 -9.71875 8.148438 -9.0625 8.296875 -8.1875 L 7.65625 -8.046875 C 7.4375 -9.515625 6.5625 -10.25 5.03125 -10.25 C 4.238281 -10.25 3.578125 -10.023438 3.046875 -9.578125 C 2.515625 -9.140625 2.25 -8.550781 2.25 -7.8125 C 2.25 -7.0625 2.488281 -6.519531 2.96875 -6.1875 C 3.445312 -5.851562 4.171875 -5.582031 5.140625 -5.375 C 6.335938 -5.113281 7.195312 -4.800781 7.71875 -4.4375 C 8.238281 -4.082031 8.5 -3.5 8.5 -2.6875 C 8.5 -1.894531 8.175781 -1.222656 7.53125 -0.671875 C 6.894531 -0.117188 6.039062 0.15625 4.96875 0.15625 Z M 4.96875 0.15625 "/></g></g></g><g fill="#929292" fill-opacity="1"><g transform="translate(267.101938, 315.903289)"><g><path d="M 5.28125 0.15625 C 4.1875 0.15625 3.382812 -0.144531 2.875 -0.75 C 2.375 -1.351562 2.132812 -2.160156 2.15625 -3.171875 L 2.21875 -10.0625 L 0.265625 -10.0625 L 0.265625 -10.65625 L 2.21875 -10.65625 L 2.234375 -12.90625 L 2.890625 -12.90625 L 2.859375 -10.65625 L 6.796875 -10.65625 L 6.796875 -10.0625 L 2.859375 -10.0625 L 2.796875 -3.1875 C 2.785156 -2.351562 2.984375 -1.691406 3.390625 -1.203125 C 3.796875 -0.722656 4.425781 -0.484375 5.28125 -0.484375 C 5.632812 -0.484375 5.957031 -0.53125 6.25 -0.625 C 6.550781 -0.71875 6.84375 -0.878906 7.125 -1.109375 L 7.40625 -0.59375 C 7.144531 -0.332031 6.820312 -0.140625 6.4375 -0.015625 C 6.050781 0.0976562 5.664062 0.15625 5.28125 0.15625 Z M 5.28125 0.15625 "/></g></g></g></svg>